<?xml version="1.0" encoding="UTF-8"?>
<svg xmlns="http://www.w3.org/2000/svg" xmlns:xlink="http://www.w3.org/1999/xlink" width="103px" height="32px" viewBox="0 0 103 32" version="1.1">
<defs>
<clipPath id="clip1">
  <path d="M 94.933594 14.828125 L 98.398438 14.828125 L 98.398438 20.265625 L 94.933594 20.265625 Z M 94.933594 14.828125 "/>
</clipPath>
<clipPath id="clip2">
  <path d="M 99.066406 14.828125 L 102.535156 14.828125 L 102.535156 20.265625 L 99.066406 20.265625 Z M 99.066406 14.828125 "/>
</clipPath>
<clipPath id="clip3">
  <path d="M 47.699219 16.398438 L 61 16.398438 L 61 31.988281 L 47.699219 31.988281 Z M 47.699219 16.398438 "/>
</clipPath>
</defs>
<g id="surface1">
<g clip-path="url(#clip1)" clip-rule="nonzero">
<path style=" stroke:none;fill-rule:nonzero;fill:rgb(100%,100%,100%);fill-opacity:1;" d="M 98.230469 15.535156 C 96.929688 16.023438 96.492188 16.628906 96.492188 17.214844 C 96.46875 18.519531 98.390625 17.816406 98.347656 19.035156 C 98.347656 19.582031 97.933594 20.1875 97.007812 20.1875 C 96.019531 20.1875 94.976562 19.425781 94.976562 17.941406 C 94.976562 16.179688 96.433594 15.21875 97.933594 14.828125 Z M 98.230469 15.535156 "/>
</g>
<g clip-path="url(#clip2)" clip-rule="nonzero">
<path style=" stroke:none;fill-rule:nonzero;fill:rgb(100%,100%,100%);fill-opacity:1;" d="M 102.324219 15.535156 C 101.023438 16.023438 100.589844 16.628906 100.589844 17.214844 C 100.5625 18.519531 102.488281 17.816406 102.445312 19.035156 C 102.445312 19.582031 102.03125 20.1875 101.101562 20.1875 C 100.117188 20.1875 99.070312 19.425781 99.070312 17.941406 C 99.070312 16.179688 100.53125 15.21875 102.03125 14.828125 Z M 102.324219 15.535156 "/>
</g>
<path style=" stroke:none;fill-rule:nonzero;fill:rgb(100%,100%,100%);fill-opacity:1;" d="M 96.683594 21.496094 C 96.007812 21.496094 95.386719 21.335938 94.941406 21.078125 L 94.941406 31.699219 L 98.382812 31.699219 L 98.382812 21.097656 C 97.945312 21.34375 97.34375 21.496094 96.683594 21.496094 Z M 96.683594 21.496094 "/>
<g clip-path="url(#clip3)" clip-rule="nonzero">
<path style=" stroke:none;fill-rule:nonzero;fill:rgb(100%,100%,100%);fill-opacity:1;" d="M 47.699219 26.972656 L 51.25 26.972656 C 51.375 28.222656 52.1875 29.453125 54.371094 29.453125 C 56.359375 29.453125 57.191406 28.539062 57.191406 27.628906 C 57.191406 26.71875 56.699219 26.082031 54.925781 25.785156 L 52.960938 25.46875 C 49.605469 24.917969 48.257812 23.453125 48.257812 20.953125 C 48.257812 18.453125 50.523438 16.4375 54.179688 16.4375 C 58.261719 16.4375 60.269531 18.664062 60.550781 21.230469 L 57 21.230469 C 56.785156 20.019531 55.996094 19.003906 54.15625 19.003906 C 52.425781 19.003906 51.742188 19.894531 51.742188 20.679688 C 51.742188 21.632812 52.277344 22.078125 54.050781 22.375 L 55.847656 22.648438 C 59.136719 23.179688 60.957031 24.683594 60.957031 27.3125 C 60.957031 30.152344 58.539062 32.019531 54.414062 32.019531 C 50.289062 32.019531 47.894531 29.917969 47.699219 26.972656 Z M 47.699219 26.972656 "/>
</g>
<path style=" stroke:none;fill-rule:nonzero;fill:rgb(100%,100%,100%);fill-opacity:1;" d="M 69.289062 21.078125 L 72.582031 21.078125 L 72.582031 22.246094 C 73.160156 21.417969 74.078125 20.761719 75.554688 20.761719 C 77.113281 20.761719 78.117188 21.566406 78.675781 22.519531 C 79.292969 21.609375 80.492188 20.761719 82.136719 20.761719 C 84.507812 20.761719 86.113281 22.136719 86.113281 24.789062 L 86.113281 31.699219 L 82.714844 31.699219 L 82.734375 25.277344 C 82.734375 24.066406 82.242188 23.390625 81.066406 23.390625 C 79.894531 23.390625 79.316406 24.214844 79.316406 25.550781 L 79.316406 31.699219 L 76.109375 31.699219 L 76.109375 25.277344 C 76.109375 24.066406 75.617188 23.390625 74.417969 23.390625 C 73.222656 23.390625 72.707031 24.257812 72.707031 25.550781 L 72.707031 31.699219 L 69.289062 31.699219 Z M 69.289062 21.078125 "/>
<path style=" stroke:none;fill-rule:nonzero;fill:rgb(100%,100%,100%);fill-opacity:1;" d="M 88.742188 16.753906 L 92.183594 16.753906 L 92.183594 31.699219 L 88.742188 31.699219 Z M 88.742188 16.753906 "/>
<path style=" stroke:none;fill-rule:nonzero;fill:rgb(100%,100%,100%);fill-opacity:1;" d="M 64.777344 21.496094 C 64.125 21.496094 63.53125 21.347656 63.089844 21.105469 L 63.089844 31.699219 L 66.535156 31.699219 L 66.535156 21.078125 C 66.089844 21.335938 65.453125 21.496094 64.777344 21.496094 Z M 64.777344 21.496094 "/>
<path style=" stroke:none;fill-rule:nonzero;fill:rgb(100%,100%,100%);fill-opacity:1;" d="M 64.78125 16.4375 C 66 16.4375 66.789062 17.285156 66.789062 18.28125 C 66.789062 19.277344 66 20.1875 64.78125 20.1875 C 63.5625 20.1875 62.835938 19.320312 62.835938 18.28125 C 62.835938 17.242188 63.5625 16.4375 64.78125 16.4375 Z M 64.78125 16.4375 "/>
<path style=" stroke:none;fill-rule:nonzero;fill:rgb(100%,100%,100%);fill-opacity:1;" d="M 11.3125 7.265625 C 11.3125 7.605469 11.234375 7.941406 11.085938 8.265625 C 10.941406 8.59375 10.742188 8.886719 10.5 9.148438 C 10.253906 9.40625 9.972656 9.621094 9.660156 9.785156 C 9.347656 9.953125 9.023438 10.046875 8.691406 10.0625 C 8.683594 10.179688 8.679688 10.320312 8.675781 10.492188 C 8.675781 10.664062 8.664062 10.847656 8.644531 11.035156 C 8.625 11.222656 8.597656 11.414062 8.5625 11.601562 C 8.53125 11.789062 8.480469 11.957031 8.414062 12.109375 C 8.347656 12.261719 8.261719 12.382812 8.160156 12.476562 C 8.054688 12.570312 7.929688 12.617188 7.777344 12.617188 C 7.601562 12.617188 7.460938 12.558594 7.355469 12.441406 C 7.253906 12.328125 7.175781 12.1875 7.121094 12.023438 C 7.066406 11.859375 7.03125 11.691406 7.011719 11.511719 C 6.996094 11.332031 6.984375 11.179688 6.976562 11.054688 C 6.964844 10.871094 6.957031 10.691406 6.953125 10.519531 C 6.949219 10.34375 6.949219 10.164062 6.949219 9.980469 C 6.949219 9.898438 6.949219 9.746094 6.949219 9.523438 C 6.949219 9.300781 6.949219 9.046875 6.953125 8.761719 C 6.957031 8.472656 6.960938 8.175781 6.96875 7.867188 C 6.972656 7.554688 6.984375 7.265625 6.996094 7 C 7.007812 6.730469 7.023438 6.503906 7.039062 6.316406 C 7.054688 6.128906 7.074219 6.019531 7.101562 5.988281 C 7.105469 5.980469 7.125 5.964844 7.15625 5.941406 C 7.1875 5.921875 7.222656 5.898438 7.257812 5.878906 C 7.296875 5.855469 7.332031 5.835938 7.363281 5.816406 C 7.394531 5.800781 7.417969 5.785156 7.429688 5.777344 C 7.71875 5.617188 8.035156 5.476562 8.378906 5.355469 C 8.726562 5.238281 9.066406 5.175781 9.40625 5.175781 C 9.695312 5.175781 9.957031 5.234375 10.191406 5.351562 C 10.429688 5.46875 10.628906 5.621094 10.796875 5.8125 C 10.960938 6.003906 11.089844 6.226562 11.175781 6.480469 C 11.265625 6.734375 11.3125 6.996094 11.3125 7.265625 Z M 9.679688 7.484375 C 9.679688 7.359375 9.648438 7.25 9.589844 7.152344 C 9.53125 7.058594 9.429688 7.011719 9.292969 7.011719 C 9.175781 7.011719 9.054688 7.035156 8.9375 7.082031 C 8.816406 7.128906 8.707031 7.179688 8.605469 7.230469 C 8.625 7.449219 8.644531 7.664062 8.660156 7.871094 C 8.671875 8.078125 8.675781 8.289062 8.664062 8.511719 C 8.761719 8.460938 8.871094 8.402344 8.992188 8.335938 C 9.109375 8.269531 9.222656 8.195312 9.320312 8.117188 C 9.421875 8.035156 9.507812 7.941406 9.574219 7.835938 C 9.644531 7.734375 9.679688 7.613281 9.679688 7.484375 Z M 9.679688 7.484375 "/>
<path style=" stroke:none;fill-rule:nonzero;fill:rgb(100%,100%,100%);fill-opacity:1;" d="M 13.324219 12.589844 C 13.003906 12.589844 12.726562 12.503906 12.488281 12.335938 C 12.246094 12.164062 12.046875 11.949219 11.882812 11.683594 C 11.71875 11.421875 11.597656 11.128906 11.515625 10.804688 C 11.433594 10.480469 11.394531 10.160156 11.394531 9.847656 C 11.394531 9.515625 11.433594 9.171875 11.515625 8.816406 C 11.597656 8.464844 11.722656 8.140625 11.894531 7.847656 C 12.0625 7.554688 12.28125 7.316406 12.542969 7.128906 C 12.804688 6.945312 13.121094 6.855469 13.488281 6.855469 C 13.835938 6.855469 14.136719 6.949219 14.382812 7.140625 C 14.632812 7.332031 14.832031 7.570312 14.980469 7.855469 C 15.132812 8.140625 15.242188 8.453125 15.304688 8.792969 C 15.367188 9.132812 15.386719 9.453125 15.371094 9.753906 C 15.351562 10.085938 15.296875 10.421875 15.214844 10.761719 C 15.128906 11.101562 15.003906 11.40625 14.839844 11.675781 C 14.679688 11.945312 14.472656 12.164062 14.21875 12.335938 C 13.96875 12.503906 13.671875 12.589844 13.324219 12.589844 Z M 13.417969 8.332031 C 13.324219 8.332031 13.242188 8.382812 13.167969 8.484375 C 13.097656 8.582031 13.039062 8.707031 12.992188 8.847656 C 12.941406 8.996094 12.90625 9.148438 12.882812 9.308594 C 12.855469 9.46875 12.84375 9.605469 12.84375 9.726562 C 12.84375 9.875 12.859375 10.039062 12.886719 10.214844 C 12.914062 10.390625 12.957031 10.554688 13.003906 10.703125 C 13.054688 10.847656 13.117188 10.972656 13.1875 11.066406 C 13.261719 11.164062 13.34375 11.214844 13.4375 11.214844 C 13.539062 11.214844 13.625 11.167969 13.695312 11.074219 C 13.769531 10.976562 13.828125 10.859375 13.871094 10.714844 C 13.917969 10.570312 13.949219 10.410156 13.964844 10.238281 C 13.984375 10.066406 13.996094 9.90625 13.996094 9.753906 C 13.996094 9.617188 13.980469 9.464844 13.957031 9.296875 C 13.933594 9.128906 13.894531 8.976562 13.847656 8.832031 C 13.800781 8.6875 13.742188 8.566406 13.667969 8.472656 C 13.597656 8.378906 13.515625 8.332031 13.417969 8.332031 Z M 13.417969 8.332031 "/>
<path style=" stroke:none;fill-rule:nonzero;fill:rgb(100%,100%,100%);fill-opacity:1;" d="M 20.539062 12.4375 C 20.339844 12.4375 20.160156 12.332031 20 12.117188 C 19.839844 11.90625 19.699219 11.648438 19.578125 11.351562 C 19.460938 11.054688 19.359375 10.746094 19.28125 10.433594 C 19.203125 10.121094 19.144531 9.859375 19.109375 9.648438 C 19.058594 9.777344 18.992188 9.929688 18.90625 10.113281 C 18.820312 10.292969 18.722656 10.484375 18.613281 10.6875 C 18.503906 10.886719 18.386719 11.089844 18.261719 11.292969 C 18.136719 11.496094 18.003906 11.683594 17.871094 11.84375 C 17.734375 12.007812 17.597656 12.140625 17.464844 12.242188 C 17.332031 12.339844 17.199219 12.390625 17.074219 12.390625 C 16.902344 12.390625 16.753906 12.308594 16.625 12.148438 C 16.496094 11.984375 16.390625 11.769531 16.300781 11.503906 C 16.214844 11.242188 16.140625 10.949219 16.078125 10.628906 C 16.019531 10.308594 15.972656 9.988281 15.941406 9.671875 C 15.910156 9.347656 15.890625 9.050781 15.878906 8.773438 C 15.863281 8.5 15.859375 8.277344 15.859375 8.105469 C 15.859375 7.949219 15.867188 7.796875 15.882812 7.652344 C 15.898438 7.507812 15.929688 7.378906 15.976562 7.269531 C 16.023438 7.15625 16.09375 7.066406 16.183594 7 C 16.277344 6.933594 16.394531 6.898438 16.546875 6.898438 C 16.691406 6.898438 16.8125 6.953125 16.917969 7.058594 C 17.019531 7.167969 17.109375 7.308594 17.175781 7.480469 C 17.246094 7.652344 17.304688 7.847656 17.347656 8.0625 C 17.390625 8.28125 17.425781 8.5 17.449219 8.722656 C 17.476562 8.945312 17.492188 9.164062 17.503906 9.375 C 17.511719 9.585938 17.519531 9.765625 17.527344 9.914062 C 17.5625 9.78125 17.617188 9.621094 17.6875 9.429688 C 17.753906 9.238281 17.832031 9.03125 17.914062 8.816406 C 17.996094 8.597656 18.085938 8.386719 18.183594 8.171875 C 18.277344 7.957031 18.375 7.765625 18.472656 7.597656 C 18.570312 7.429688 18.667969 7.289062 18.761719 7.183594 C 18.855469 7.074219 18.945312 7.023438 19.035156 7.023438 L 19.042969 7.023438 C 19.15625 7.023438 19.265625 7.074219 19.375 7.183594 C 19.480469 7.289062 19.582031 7.429688 19.683594 7.597656 C 19.785156 7.765625 19.878906 7.960938 19.964844 8.175781 C 20.054688 8.394531 20.136719 8.613281 20.210938 8.835938 C 20.285156 9.058594 20.351562 9.277344 20.410156 9.488281 C 20.464844 9.695312 20.511719 9.875 20.550781 10.027344 C 20.554688 9.84375 20.566406 9.640625 20.578125 9.410156 C 20.589844 9.179688 20.613281 8.949219 20.648438 8.71875 C 20.683594 8.484375 20.730469 8.257812 20.789062 8.039062 C 20.847656 7.820312 20.921875 7.625 21.011719 7.453125 C 21.097656 7.277344 21.207031 7.140625 21.335938 7.035156 C 21.464844 6.933594 21.613281 6.878906 21.785156 6.878906 C 21.960938 6.878906 22.089844 6.941406 22.175781 7.0625 C 22.261719 7.1875 22.300781 7.335938 22.300781 7.511719 C 22.300781 7.699219 22.277344 7.953125 22.230469 8.265625 C 22.183594 8.582031 22.121094 8.921875 22.039062 9.289062 C 21.957031 9.65625 21.859375 10.027344 21.75 10.398438 C 21.640625 10.773438 21.519531 11.109375 21.386719 11.410156 C 21.253906 11.714844 21.117188 11.960938 20.972656 12.152344 C 20.828125 12.34375 20.683594 12.4375 20.539062 12.4375 Z M 20.539062 12.4375 "/>
<path style=" stroke:none;fill-rule:nonzero;fill:rgb(100%,100%,100%);fill-opacity:1;" d="M 26.765625 10.640625 C 26.765625 10.851562 26.699219 11.0625 26.566406 11.265625 C 26.429688 11.46875 26.261719 11.652344 26.054688 11.8125 C 25.851562 11.972656 25.632812 12.101562 25.398438 12.199219 C 25.167969 12.296875 24.953125 12.34375 24.761719 12.34375 C 24.425781 12.34375 24.128906 12.261719 23.867188 12.09375 C 23.609375 11.929688 23.390625 11.71875 23.214844 11.460938 C 23.039062 11.203125 22.90625 10.917969 22.816406 10.609375 C 22.722656 10.296875 22.679688 9.992188 22.679688 9.699219 C 22.679688 9.382812 22.722656 9.046875 22.808594 8.691406 C 22.898438 8.332031 23.03125 8.003906 23.210938 7.703125 C 23.390625 7.398438 23.617188 7.148438 23.890625 6.949219 C 24.164062 6.746094 24.488281 6.644531 24.863281 6.644531 C 25.078125 6.644531 25.28125 6.683594 25.476562 6.753906 C 25.671875 6.824219 25.839844 6.929688 25.984375 7.058594 C 26.128906 7.191406 26.246094 7.347656 26.332031 7.53125 C 26.421875 7.714844 26.464844 7.917969 26.464844 8.144531 C 26.464844 8.4375 26.402344 8.714844 26.277344 8.972656 C 26.152344 9.230469 25.984375 9.453125 25.777344 9.640625 C 25.570312 9.832031 25.332031 9.984375 25.058594 10.097656 C 24.789062 10.214844 24.515625 10.277344 24.234375 10.292969 C 24.257812 10.472656 24.332031 10.605469 24.453125 10.6875 C 24.574219 10.769531 24.722656 10.808594 24.890625 10.808594 C 25.019531 10.808594 25.140625 10.777344 25.261719 10.714844 C 25.378906 10.652344 25.496094 10.582031 25.609375 10.503906 C 25.722656 10.425781 25.832031 10.355469 25.941406 10.292969 C 26.050781 10.230469 26.164062 10.199219 26.277344 10.199219 C 26.402344 10.199219 26.515625 10.238281 26.613281 10.320312 C 26.714844 10.402344 26.765625 10.507812 26.765625 10.640625 Z M 25.242188 8.332031 C 25.242188 8.25 25.21875 8.167969 25.175781 8.078125 C 25.128906 7.988281 25.0625 7.945312 24.96875 7.945312 C 24.828125 7.945312 24.714844 7.980469 24.617188 8.054688 C 24.523438 8.125 24.445312 8.21875 24.382812 8.328125 C 24.320312 8.4375 24.273438 8.554688 24.238281 8.679688 C 24.203125 8.804688 24.183594 8.921875 24.175781 9.027344 C 24.265625 9.007812 24.371094 8.984375 24.492188 8.953125 C 24.613281 8.921875 24.730469 8.878906 24.839844 8.828125 C 24.949219 8.773438 25.042969 8.707031 25.121094 8.625 C 25.203125 8.542969 25.242188 8.445312 25.242188 8.332031 Z M 25.242188 8.332031 "/>
<path style=" stroke:none;fill-rule:nonzero;fill:rgb(100%,100%,100%);fill-opacity:1;" d="M 30.414062 8.792969 C 30.324219 8.800781 30.25 8.792969 30.1875 8.769531 C 30.125 8.75 30.0625 8.722656 30 8.699219 C 29.941406 8.675781 29.882812 8.652344 29.828125 8.628906 C 29.773438 8.605469 29.710938 8.597656 29.640625 8.605469 C 29.511719 8.613281 29.402344 8.644531 29.304688 8.707031 C 29.207031 8.769531 29.121094 8.847656 29.039062 8.941406 C 28.960938 9.039062 28.894531 9.144531 28.839844 9.261719 C 28.78125 9.375 28.738281 9.488281 28.707031 9.605469 C 28.6875 9.679688 28.675781 9.792969 28.664062 9.949219 C 28.65625 10.101562 28.652344 10.265625 28.652344 10.441406 C 28.644531 10.625 28.640625 10.796875 28.640625 10.960938 C 28.640625 11.121094 28.636719 11.25 28.625 11.34375 C 28.617188 11.445312 28.601562 11.566406 28.574219 11.699219 C 28.550781 11.835938 28.511719 11.960938 28.457031 12.082031 C 28.402344 12.199219 28.332031 12.300781 28.246094 12.378906 C 28.15625 12.460938 28.042969 12.503906 27.90625 12.503906 C 27.800781 12.503906 27.707031 12.472656 27.628906 12.410156 C 27.550781 12.347656 27.484375 12.265625 27.429688 12.160156 C 27.375 12.058594 27.332031 11.9375 27.296875 11.800781 C 27.261719 11.660156 27.238281 11.519531 27.21875 11.375 C 27.199219 11.222656 27.183594 11.074219 27.175781 10.921875 C 27.167969 10.769531 27.160156 10.628906 27.15625 10.492188 C 27.152344 10.359375 27.152344 10.234375 27.15625 10.121094 C 27.160156 10.007812 27.164062 9.917969 27.164062 9.847656 C 27.15625 9.628906 27.144531 9.40625 27.128906 9.183594 C 27.113281 8.960938 27.105469 8.738281 27.105469 8.519531 C 27.105469 8.382812 27.113281 8.226562 27.125 8.058594 C 27.136719 7.886719 27.171875 7.730469 27.226562 7.582031 C 27.285156 7.4375 27.367188 7.3125 27.476562 7.210938 C 27.585938 7.109375 27.738281 7.058594 27.933594 7.058594 C 28.039062 7.058594 28.132812 7.09375 28.207031 7.164062 C 28.28125 7.230469 28.34375 7.316406 28.390625 7.417969 C 28.4375 7.519531 28.476562 7.625 28.5 7.738281 C 28.527344 7.851562 28.539062 7.957031 28.546875 8.050781 C 28.699219 7.804688 28.867188 7.605469 29.054688 7.453125 C 29.242188 7.296875 29.488281 7.214844 29.789062 7.203125 C 29.941406 7.195312 30.089844 7.207031 30.238281 7.242188 C 30.386719 7.277344 30.519531 7.335938 30.640625 7.414062 C 30.765625 7.492188 30.867188 7.59375 30.945312 7.71875 C 31.023438 7.84375 31.066406 7.992188 31.070312 8.160156 C 31.082031 8.363281 31.023438 8.519531 30.890625 8.625 C 30.761719 8.730469 30.601562 8.785156 30.414062 8.792969 Z M 30.414062 8.792969 "/>
<path style=" stroke:none;fill-rule:nonzero;fill:rgb(100%,100%,100%);fill-opacity:1;" d="M 35.160156 10.640625 C 35.160156 10.851562 35.089844 11.0625 34.957031 11.265625 C 34.820312 11.46875 34.652344 11.652344 34.449219 11.8125 C 34.246094 11.972656 34.027344 12.101562 33.792969 12.199219 C 33.558594 12.296875 33.347656 12.34375 33.152344 12.34375 C 32.820312 12.34375 32.523438 12.261719 32.261719 12.09375 C 32 11.929688 31.78125 11.71875 31.605469 11.460938 C 31.433594 11.203125 31.296875 10.917969 31.207031 10.609375 C 31.117188 10.296875 31.070312 9.992188 31.070312 9.699219 C 31.070312 9.382812 31.117188 9.046875 31.203125 8.691406 C 31.289062 8.332031 31.421875 8.003906 31.601562 7.703125 C 31.78125 7.398438 32.007812 7.148438 32.28125 6.949219 C 32.554688 6.746094 32.878906 6.644531 33.257812 6.644531 C 33.46875 6.644531 33.675781 6.683594 33.871094 6.753906 C 34.0625 6.824219 34.234375 6.929688 34.378906 7.058594 C 34.523438 7.191406 34.636719 7.347656 34.726562 7.53125 C 34.8125 7.714844 34.855469 7.917969 34.855469 8.144531 C 34.855469 8.4375 34.792969 8.714844 34.667969 8.972656 C 34.542969 9.230469 34.378906 9.453125 34.167969 9.640625 C 33.960938 9.832031 33.722656 9.984375 33.453125 10.097656 C 33.183594 10.214844 32.90625 10.277344 32.625 10.292969 C 32.652344 10.472656 32.722656 10.605469 32.847656 10.6875 C 32.96875 10.769531 33.113281 10.808594 33.285156 10.808594 C 33.410156 10.808594 33.53125 10.777344 33.652344 10.714844 C 33.773438 10.652344 33.886719 10.582031 34 10.503906 C 34.113281 10.425781 34.222656 10.355469 34.335938 10.292969 C 34.445312 10.230469 34.558594 10.199219 34.667969 10.199219 C 34.792969 10.199219 34.90625 10.238281 35.007812 10.320312 C 35.109375 10.402344 35.160156 10.507812 35.160156 10.640625 Z M 33.632812 8.332031 C 33.632812 8.25 33.613281 8.167969 33.566406 8.078125 C 33.523438 7.988281 33.453125 7.945312 33.359375 7.945312 C 33.222656 7.945312 33.105469 7.980469 33.011719 8.054688 C 32.917969 8.125 32.839844 8.21875 32.777344 8.328125 C 32.714844 8.4375 32.664062 8.554688 32.628906 8.679688 C 32.59375 8.804688 32.574219 8.921875 32.570312 9.027344 C 32.65625 9.007812 32.761719 8.984375 32.882812 8.953125 C 33.007812 8.921875 33.121094 8.878906 33.230469 8.828125 C 33.34375 8.773438 33.4375 8.707031 33.515625 8.625 C 33.59375 8.542969 33.632812 8.445312 33.632812 8.332031 Z M 33.632812 8.332031 "/>
<path style=" stroke:none;fill-rule:nonzero;fill:rgb(100%,100%,100%);fill-opacity:1;" d="M 39.59375 6.117188 C 39.59375 6.578125 39.578125 7.03125 39.542969 7.484375 C 39.511719 7.9375 39.492188 8.390625 39.492188 8.847656 C 39.492188 9.21875 39.503906 9.589844 39.523438 9.953125 C 39.546875 10.316406 39.558594 10.683594 39.558594 11.054688 C 39.558594 11.152344 39.554688 11.273438 39.546875 11.417969 C 39.542969 11.558594 39.519531 11.695312 39.488281 11.828125 C 39.453125 11.957031 39.398438 12.070312 39.316406 12.167969 C 39.238281 12.257812 39.128906 12.304688 38.984375 12.304688 C 38.796875 12.304688 38.640625 12.234375 38.519531 12.09375 C 38.394531 11.953125 38.320312 11.792969 38.285156 11.617188 C 38.167969 11.84375 37.996094 12.035156 37.769531 12.191406 C 37.542969 12.351562 37.296875 12.429688 37.035156 12.429688 C 36.75 12.429688 36.507812 12.332031 36.304688 12.136719 C 36.097656 11.941406 35.929688 11.707031 35.796875 11.429688 C 35.660156 11.15625 35.558594 10.867188 35.492188 10.5625 C 35.425781 10.261719 35.394531 10.003906 35.394531 9.78125 C 35.394531 9.625 35.402344 9.445312 35.421875 9.246094 C 35.441406 9.042969 35.476562 8.839844 35.523438 8.632812 C 35.570312 8.425781 35.628906 8.222656 35.707031 8.027344 C 35.78125 7.828125 35.875 7.652344 35.992188 7.492188 C 36.109375 7.335938 36.246094 7.210938 36.40625 7.117188 C 36.566406 7.023438 36.75 6.972656 36.957031 6.972656 C 37.183594 6.972656 37.402344 7.039062 37.609375 7.171875 C 37.816406 7.304688 37.972656 7.46875 38.078125 7.660156 L 38.164062 6.164062 C 38.171875 6.046875 38.179688 5.90625 38.191406 5.746094 C 38.207031 5.585938 38.230469 5.433594 38.273438 5.289062 C 38.3125 5.144531 38.378906 5.023438 38.464844 4.921875 C 38.554688 4.820312 38.683594 4.769531 38.851562 4.769531 C 39.035156 4.769531 39.175781 4.816406 39.273438 4.902344 C 39.375 4.992188 39.449219 5.101562 39.496094 5.238281 C 39.542969 5.371094 39.574219 5.519531 39.582031 5.675781 C 39.589844 5.832031 39.59375 5.980469 39.59375 6.117188 Z M 38.058594 10.300781 C 38.058594 10.15625 38.054688 10.015625 38.050781 9.875 C 38.042969 9.738281 38.042969 9.597656 38.050781 9.453125 C 38.015625 9.371094 37.96875 9.28125 37.917969 9.183594 C 37.867188 9.089844 37.808594 8.996094 37.734375 8.910156 C 37.664062 8.824219 37.582031 8.753906 37.496094 8.699219 C 37.40625 8.644531 37.3125 8.613281 37.210938 8.613281 C 37.097656 8.613281 37.007812 8.648438 36.9375 8.71875 C 36.871094 8.789062 36.820312 8.871094 36.789062 8.96875 C 36.757812 9.066406 36.734375 9.171875 36.726562 9.28125 C 36.71875 9.394531 36.714844 9.492188 36.714844 9.574219 C 36.714844 9.652344 36.71875 9.761719 36.734375 9.910156 C 36.746094 10.058594 36.769531 10.207031 36.804688 10.359375 C 36.839844 10.507812 36.886719 10.640625 36.949219 10.753906 C 37.011719 10.867188 37.097656 10.921875 37.203125 10.921875 C 37.285156 10.921875 37.367188 10.90625 37.449219 10.871094 C 37.527344 10.835938 37.605469 10.792969 37.679688 10.738281 C 37.75 10.683594 37.820312 10.625 37.886719 10.558594 C 37.953125 10.492188 38.011719 10.433594 38.058594 10.375 Z M 38.058594 10.300781 "/>
<path style=" stroke:none;fill-rule:nonzero;fill:rgb(100%,100%,100%);fill-opacity:1;" d="M 46.941406 9.207031 C 46.941406 9.390625 46.929688 9.59375 46.902344 9.824219 C 46.871094 10.054688 46.828125 10.289062 46.769531 10.527344 C 46.710938 10.765625 46.632812 11 46.535156 11.222656 C 46.4375 11.449219 46.316406 11.652344 46.175781 11.832031 C 46.035156 12.011719 45.871094 12.152344 45.683594 12.261719 C 45.5 12.367188 45.285156 12.421875 45.039062 12.421875 C 44.78125 12.421875 44.550781 12.359375 44.339844 12.242188 C 44.128906 12.121094 43.949219 11.957031 43.796875 11.75 C 43.777344 11.921875 43.710938 12.070312 43.589844 12.199219 C 43.46875 12.328125 43.320312 12.390625 43.136719 12.390625 C 43.03125 12.390625 42.941406 12.335938 42.871094 12.230469 C 42.796875 12.125 42.738281 11.988281 42.695312 11.824219 C 42.648438 11.65625 42.617188 11.472656 42.59375 11.269531 C 42.574219 11.070312 42.558594 10.875 42.554688 10.6875 C 42.546875 10.5 42.542969 10.328125 42.542969 10.179688 C 42.542969 10.027344 42.542969 9.921875 42.542969 9.859375 C 42.542969 9.644531 42.546875 9.429688 42.546875 9.21875 C 42.550781 9.003906 42.554688 8.785156 42.5625 8.566406 C 42.5625 8.460938 42.5625 8.300781 42.558594 8.085938 C 42.554688 7.875 42.554688 7.636719 42.5625 7.375 C 42.566406 7.117188 42.582031 6.847656 42.605469 6.574219 C 42.625 6.300781 42.664062 6.050781 42.722656 5.828125 C 42.777344 5.601562 42.855469 5.414062 42.957031 5.269531 C 43.058594 5.125 43.1875 5.050781 43.34375 5.042969 C 43.46875 5.042969 43.578125 5.089844 43.664062 5.175781 C 43.753906 5.265625 43.828125 5.378906 43.886719 5.523438 C 43.945312 5.667969 43.992188 5.832031 44.027344 6.011719 C 44.0625 6.1875 44.085938 6.367188 44.101562 6.546875 C 44.117188 6.726562 44.125 6.894531 44.128906 7.054688 C 44.132812 7.214844 44.136719 7.34375 44.136719 7.445312 C 44.136719 7.464844 44.132812 7.507812 44.128906 7.574219 C 44.125 7.640625 44.125 7.710938 44.125 7.785156 C 44.125 7.859375 44.125 7.925781 44.125 7.988281 C 44.125 8.046875 44.125 8.082031 44.125 8.085938 C 44.183594 7.96875 44.265625 7.851562 44.371094 7.738281 C 44.476562 7.625 44.597656 7.523438 44.730469 7.4375 C 44.863281 7.347656 45 7.277344 45.144531 7.21875 C 45.289062 7.164062 45.425781 7.136719 45.558594 7.136719 C 45.824219 7.136719 46.042969 7.203125 46.222656 7.339844 C 46.402344 7.472656 46.542969 7.644531 46.652344 7.851562 C 46.757812 8.058594 46.832031 8.28125 46.875 8.523438 C 46.921875 8.765625 46.941406 8.996094 46.941406 9.207031 Z M 45.558594 9.492188 C 45.558594 9.414062 45.554688 9.332031 45.542969 9.246094 C 45.535156 9.15625 45.511719 9.078125 45.476562 9 C 45.441406 8.925781 45.394531 8.863281 45.335938 8.8125 C 45.277344 8.761719 45.199219 8.738281 45.105469 8.738281 C 45.003906 8.738281 44.90625 8.757812 44.808594 8.804688 C 44.710938 8.847656 44.621094 8.902344 44.53125 8.972656 C 44.445312 9.042969 44.363281 9.117188 44.285156 9.195312 C 44.210938 9.273438 44.144531 9.347656 44.089844 9.425781 L 43.996094 10.261719 C 44.09375 10.40625 44.214844 10.519531 44.359375 10.605469 C 44.503906 10.691406 44.667969 10.734375 44.851562 10.734375 C 44.992188 10.734375 45.105469 10.6875 45.195312 10.601562 C 45.285156 10.515625 45.359375 10.40625 45.410156 10.277344 C 45.464844 10.148438 45.503906 10.011719 45.527344 9.867188 C 45.546875 9.722656 45.558594 9.597656 45.558594 9.492188 Z M 45.558594 9.492188 "/>
<path style=" stroke:none;fill-rule:nonzero;fill:rgb(100%,100%,100%);fill-opacity:1;" d="M 49.5625 15.058594 C 49.410156 15.058594 49.238281 15.035156 49.046875 14.988281 C 48.855469 14.941406 48.675781 14.871094 48.503906 14.78125 C 48.335938 14.695312 48.191406 14.589844 48.078125 14.460938 C 47.960938 14.335938 47.902344 14.191406 47.902344 14.03125 C 47.902344 13.96875 47.917969 13.90625 47.949219 13.839844 C 47.980469 13.777344 48.023438 13.722656 48.078125 13.675781 C 48.128906 13.628906 48.1875 13.589844 48.25 13.5625 C 48.316406 13.535156 48.382812 13.523438 48.449219 13.523438 C 48.527344 13.523438 48.601562 13.53125 48.671875 13.554688 C 48.746094 13.574219 48.816406 13.601562 48.894531 13.636719 C 48.976562 13.667969 49.054688 13.695312 49.132812 13.71875 C 49.210938 13.746094 49.296875 13.757812 49.382812 13.757812 C 49.539062 13.757812 49.675781 13.703125 49.792969 13.597656 C 49.90625 13.488281 50.007812 13.351562 50.089844 13.175781 C 50.171875 13.003906 50.238281 12.8125 50.285156 12.601562 C 50.335938 12.390625 50.375 12.183594 50.402344 11.976562 C 50.433594 11.769531 50.453125 11.574219 50.464844 11.394531 C 50.480469 11.210938 50.488281 11.0625 50.492188 10.949219 C 50.273438 11.28125 50.054688 11.539062 49.839844 11.71875 C 49.621094 11.898438 49.355469 11.988281 49.042969 11.988281 C 48.804688 11.988281 48.59375 11.9375 48.417969 11.835938 C 48.238281 11.734375 48.085938 11.605469 47.960938 11.441406 C 47.835938 11.277344 47.730469 11.089844 47.648438 10.878906 C 47.566406 10.667969 47.503906 10.449219 47.464844 10.222656 C 47.421875 10 47.398438 9.777344 47.386719 9.558594 C 47.371094 9.34375 47.371094 9.144531 47.386719 8.960938 C 47.390625 8.824219 47.410156 8.644531 47.4375 8.421875 C 47.464844 8.199219 47.511719 7.980469 47.574219 7.765625 C 47.636719 7.550781 47.722656 7.371094 47.835938 7.222656 C 47.949219 7.078125 48.097656 7.011719 48.28125 7.023438 C 48.398438 7.027344 48.496094 7.082031 48.574219 7.179688 C 48.648438 7.277344 48.707031 7.398438 48.753906 7.542969 C 48.800781 7.6875 48.835938 7.84375 48.859375 8.015625 C 48.882812 8.1875 48.894531 8.359375 48.902344 8.527344 C 48.910156 8.699219 48.910156 8.855469 48.90625 8.996094 C 48.902344 9.136719 48.902344 9.246094 48.902344 9.320312 C 48.902344 9.425781 48.902344 9.535156 48.910156 9.640625 C 48.917969 9.75 48.9375 9.84375 48.976562 9.929688 C 49.015625 10.011719 49.074219 10.082031 49.152344 10.128906 C 49.230469 10.179688 49.34375 10.207031 49.488281 10.207031 C 49.648438 10.207031 49.777344 10.164062 49.875 10.085938 C 49.972656 10.003906 50.046875 9.902344 50.09375 9.777344 C 50.140625 9.65625 50.171875 9.523438 50.183594 9.382812 C 50.195312 9.242188 50.203125 9.105469 50.203125 8.980469 C 50.203125 8.894531 50.203125 8.785156 50.203125 8.660156 C 50.203125 8.535156 50.203125 8.402344 50.207031 8.265625 C 50.210938 8.128906 50.222656 7.992188 50.242188 7.855469 C 50.265625 7.722656 50.300781 7.597656 50.347656 7.488281 C 50.394531 7.378906 50.457031 7.289062 50.535156 7.21875 C 50.613281 7.152344 50.714844 7.117188 50.84375 7.117188 C 51 7.117188 51.136719 7.175781 51.246094 7.300781 C 51.359375 7.421875 51.457031 7.582031 51.535156 7.78125 C 51.613281 7.976562 51.675781 8.195312 51.722656 8.433594 C 51.769531 8.675781 51.804688 8.910156 51.832031 9.148438 C 51.855469 9.382812 51.875 9.597656 51.882812 9.796875 C 51.890625 9.996094 51.898438 10.148438 51.898438 10.261719 C 51.898438 10.527344 51.886719 10.824219 51.867188 11.160156 C 51.851562 11.5 51.8125 11.84375 51.761719 12.199219 C 51.707031 12.554688 51.628906 12.902344 51.519531 13.242188 C 51.414062 13.585938 51.273438 13.890625 51.101562 14.160156 C 50.929688 14.433594 50.71875 14.648438 50.464844 14.8125 C 50.214844 14.976562 49.914062 15.058594 49.5625 15.058594 Z M 49.5625 15.058594 "/>
</g>
</svg>
